<mxfile host="app.diagrams.net" modified="2023-09-13T07:00:04.607Z" agent="Mozilla/5.0 (Windows NT 10.0; Win64; x64; rv:109.0) Gecko/20100101 Firefox/117.0" version="21.7.4" etag="iabMv08J2QzSceM23fZA" type="github">
  <diagram name="Page-1" id="BEmwT24bh0sbPxq-8jjT">
    <mxGraphModel>
      <root>
        <mxCell id="0" />
        <mxCell id="1" parent="0" />
      </root>
    </mxGraphModel>
  </diagram>
</mxfile>
